<?xml version="1.0" encoding="utf-8"?>
<!-- Generator: Adobe Illustrator 21.0.0, SVG Export Plug-In . SVG Version: 6.00 Build 0)  -->
<svg version="1.1" id="图层_1" xmlns="http://www.w3.org/2000/svg" xmlns:xlink="http://www.w3.org/1999/xlink" x="0px" y="0px"
	 viewBox="0 0 35 35" style="enable-background:new 0 0 35 35;" xml:space="preserve">
<style type="text/css">
	.st0{fill:#545454;}
	.st1{fill:#60AC80;}
</style>
<polygon class="st0" points="9,1 4,1 1,1 1,4 1,16 4,16 4,4 9,4 "/>
<polygon class="st0" points="26,34 31,34 34,34 34,31 34,19 31,19 31,31 26,31 "/>
<g>
	<path d="M10.9,26.8H6.6V9.3l4.3,7.1V26.8z M17,25.6L6.7,8.2h4L17,18.8V25.6z M18,18.8l6.3-10.6h4L18,25.5V18.8z M24,16.4l4.3-7.1
		v17.6H24V16.4z"/>
</g>
<g>
	<g>
		<rect x="21.5" y="1" class="st1" width="1" height="3"/>
		<rect x="23" y="1" class="st1" width="1" height="3"/>
		<rect x="24.4" y="1" class="st1" width="1" height="3"/>
		<rect x="25.8" y="1" class="st1" width="1" height="3"/>
		<rect x="27.3" y="1" class="st1" width="1" height="3"/>
		<rect x="28.7" y="1" class="st1" width="1" height="3"/>
		<rect x="30.1" y="1" class="st1" width="1" height="3"/>
		<rect x="31.6" y="1" class="st1" width="1" height="3"/>
		<rect x="33" y="1" class="st1" width="1" height="3"/>
	</g>
</g>
<path class="st1" d="M1,32.6h0.3l0.1,0.1c0.1-0.1,0.2-0.2,0.4-0.2c0.2,0,0.3,0.1,0.4,0.2c0.1-0.1,0.3-0.2,0.5-0.2
	c0.3,0,0.4,0.2,0.4,0.5V34H2.7v-0.9c0-0.1-0.1-0.2-0.2-0.2c-0.1,0-0.2,0-0.3,0.1c0,0,0,0.1,0,0.1V34H1.8v-0.9c0-0.1-0.1-0.2-0.2-0.2
	c-0.1,0-0.2,0-0.3,0.1v1H1V32.6z"/>
<path class="st1" d="M3.3,32.6h0.3l0.1,0.2c0.1-0.1,0.2-0.2,0.4-0.2c0.1,0,0.1,0,0.2,0V33c0,0-0.1,0-0.2,0c-0.1,0-0.3,0-0.3,0.2V34
	H3.3V32.6z"/>
<path class="st1" d="M4.7,32.6c0.1,0,0.4,0,0.6,0.1v0.2c0,0-0.2,0-0.5,0c-0.2,0-0.2,0-0.2,0.4c0,0.4,0.1,0.4,0.2,0.4
	c0.2,0,0.5,0,0.5,0v0.2C5.2,34,4.9,34,4.7,34c-0.3,0-0.5-0.1-0.5-0.7C4.3,32.7,4.5,32.6,4.7,32.6z"/>
<path class="st1" d="M6.1,32.6c0.5,0,0.6,0.2,0.6,0.7c0,0.5-0.1,0.7-0.6,0.7c-0.5,0-0.6-0.2-0.6-0.7C5.5,32.8,5.7,32.6,6.1,32.6z
	 M6.1,33.7c0.2,0,0.3,0,0.3-0.4c0-0.4,0-0.4-0.3-0.4c-0.2,0-0.3,0-0.3,0.4C5.9,33.7,5.9,33.7,6.1,33.7z"/>
<path class="st1" d="M7.4,32.6c0.1,0,0.3,0,0.4,0.1V32h0.4v2H7.9l-0.1-0.1C7.7,33.9,7.6,34,7.4,34c-0.3,0-0.4-0.3-0.4-0.7
	C6.9,32.9,7,32.6,7.4,32.6z M7.5,33.7c0.1,0,0.2,0,0.3-0.1v-0.7c-0.1,0-0.2-0.1-0.3-0.1c-0.1,0-0.2,0.1-0.2,0.4
	C7.3,33.6,7.4,33.7,7.5,33.7z"/>
<path class="st1" d="M9,32.6c0.4,0,0.6,0,0.6,0.5c0,0.2-0.1,0.3-0.4,0.3H8.7c0,0.2,0.1,0.3,0.3,0.3c0.2,0,0.3,0,0.5,0v0.2
	C9.3,34,9,34,8.8,34c-0.3,0-0.5-0.2-0.5-0.7C8.4,32.7,8.5,32.6,9,32.6z M9.1,33.2c0.1,0,0.1,0,0.1-0.1c0-0.2,0-0.2-0.2-0.2
	c-0.2,0-0.3,0-0.3,0.3H9.1z"/>
<path class="st1" d="M9.7,33.7C9.7,33.7,9.8,33.6,9.7,33.7l0.3-0.1c0,0,0.1,0,0.1,0.1v0.2c0,0,0,0.1-0.1,0.1H9.8c0,0-0.1,0-0.1-0.1
	V33.7z"/>
<path class="st1" d="M10.8,32.6c0.1,0,0.4,0,0.6,0.1v0.2c0,0-0.2,0-0.5,0c-0.2,0-0.2,0-0.2,0.4c0,0.4,0.1,0.4,0.2,0.4
	c0.2,0,0.5,0,0.5,0v0.2C11.2,34,11,34,10.8,34c-0.3,0-0.5-0.1-0.5-0.7C10.3,32.7,10.5,32.6,10.8,32.6z"/>
<path class="st1" d="M11.6,32.6h0.3l0.1,0.1c0.1-0.1,0.2-0.2,0.4-0.2c0.3,0,0.4,0.2,0.4,0.5V34h-0.4v-0.9c0-0.1-0.1-0.2-0.2-0.2
	c-0.1,0-0.2,0-0.3,0.1v1h-0.4V32.6z"/>
</svg>
